<?xml version="1.0" encoding="UTF-8" standalone="no"?>
<!DOCTYPE svg PUBLIC "-//W3C//DTD SVG 1.1//EN" "http://www.w3.org/Graphics/SVG/1.1/DTD/svg11.dtd">
<svg width="100%" height="100%" viewBox="0 0 100 100" version="1.1" xmlns="http://www.w3.org/2000/svg" xmlns:xlink="http://www.w3.org/1999/xlink" xml:space="preserve" xmlns:serif="http://www.serif.com/" style="fill-rule:evenodd;clip-rule:evenodd;stroke-linejoin:round;stroke-miterlimit:2;">
    <path d="M93.788,47.972L93.81,47.972C94.368,47.972 94.9,47.738 95.278,47.328C95.662,46.912 95.852,46.354 95.802,45.79C93.794,23.704 76.308,6.212 54.22,4.2C53.66,4.156 53.096,4.338 52.68,4.724C52.264,5.108 52.032,5.65 52.038,6.216C52.386,35.568 56.258,47.562 93.788,47.972ZM93.788,52.028C56.258,52.438 52.388,64.432 52.04,93.784C52.034,94.35 52.266,94.892 52.682,95.276C53.054,95.618 53.54,95.808 54.04,95.808C54.1,95.808 54.162,95.806 54.222,95.8C76.31,93.788 93.796,76.298 95.802,54.21C95.852,53.646 95.664,53.088 95.278,52.672C94.892,52.256 94.354,52.05 93.788,52.028ZM45.646,4.21C23.628,6.28 6.198,23.768 4.2,45.794C4.15,46.358 4.338,46.916 4.724,47.332C5.102,47.742 5.636,47.974 6.192,47.974L6.216,47.974C43.622,47.544 47.484,35.556 47.836,6.224C47.842,5.658 47.608,5.114 47.192,4.73C46.772,4.346 46.21,4.158 45.646,4.21ZM6.214,52.026C5.592,51.956 5.104,52.252 4.722,52.668C4.338,53.084 4.148,53.642 4.198,54.206C6.196,76.232 23.628,93.72 45.646,95.79C45.708,95.796 45.772,95.798 45.834,95.798C46.334,95.798 46.818,95.61 47.19,95.268C47.606,94.884 47.84,94.34 47.834,93.774C47.482,64.444 43.622,52.456 6.214,52.026Z" style="fill:white;fill-rule:nonzero;"/>
</svg>
