<?xml version="1.0" encoding="UTF-8" standalone="no"?>
<!DOCTYPE svg PUBLIC "-//W3C//DTD SVG 1.1//EN" "http://www.w3.org/Graphics/SVG/1.1/DTD/svg11.dtd">
<svg width="100%" height="100%" viewBox="0 0 48 48" version="1.1" xmlns="http://www.w3.org/2000/svg" xmlns:xlink="http://www.w3.org/1999/xlink" xml:space="preserve" xmlns:serif="http://www.serif.com/" style="fill-rule:evenodd;clip-rule:evenodd;stroke-linejoin:round;stroke-miterlimit:2;">
    <g transform="matrix(1.44763,0,0,1.44763,-10.9026,-11.5975)">
        <path d="M25.54,34.58C14.6,34.58 8.36,27.08 8.1,14.6L13.58,14.6C13.76,23.76 17.8,27.64 21,28.44L21,14.6L26.16,14.6L26.16,22.5C29.32,22.16 32.64,18.56 33.76,14.6L38.92,14.6C38.06,19.48 34.46,23.08 31.9,24.56C34.46,25.76 38.56,28.9 40.12,34.58L34.44,34.58C33.22,30.78 30.18,27.84 26.16,27.44L26.16,34.58L25.54,34.58Z" style="fill:white;fill-rule:nonzero;"/>
    </g>
</svg>
